<?xml version="1.0" standalone="no"?>
<svg xmlns="http://www.w3.org/2000/svg" version="1.1" width="1015" height="1015">
	<!-- Created with https://api.qrserver.com (QR Code API, see goQR.me/api for information) -->
	<title>QR Code</title>
	<desc>https://xs-parking.com/#/download</desc>
	<rect style="fill:rgb(255, 255, 255);fill-opacity:1" x="0" y="0" width="1015" height="1015" />
	<g id="elements">
		<path style="fill:rgb(0, 0, 0)" d="M 0,0 l 35,0 0,35 -35,0 z M 35,0 l 35,0 0,35 -35,0 z M 70,0 l 35,0 0,35 -35,0 z M 105,0 l 35,0 0,35 -35,0 z M 140,0 l 35,0 0,35 -35,0 z M 175,0 l 35,0 0,35 -35,0 z M 210,0 l 35,0 0,35 -35,0 z M 315,0 l 35,0 0,35 -35,0 z M 525,0 l 35,0 0,35 -35,0 z M 560,0 l 35,0 0,35 -35,0 z M 595,0 l 35,0 0,35 -35,0 z M 630,0 l 35,0 0,35 -35,0 z M 665,0 l 35,0 0,35 -35,0 z M 770,0 l 35,0 0,35 -35,0 z M 805,0 l 35,0 0,35 -35,0 z M 840,0 l 35,0 0,35 -35,0 z M 875,0 l 35,0 0,35 -35,0 z M 910,0 l 35,0 0,35 -35,0 z M 945,0 l 35,0 0,35 -35,0 z M 980,0 l 35,0 0,35 -35,0 z M 0,35 l 35,0 0,35 -35,0 z M 210,35 l 35,0 0,35 -35,0 z M 280,35 l 35,0 0,35 -35,0 z M 315,35 l 35,0 0,35 -35,0 z M 385,35 l 35,0 0,35 -35,0 z M 420,35 l 35,0 0,35 -35,0 z M 595,35 l 35,0 0,35 -35,0 z M 700,35 l 35,0 0,35 -35,0 z M 770,35 l 35,0 0,35 -35,0 z M 980,35 l 35,0 0,35 -35,0 z M 0,70 l 35,0 0,35 -35,0 z M 70,70 l 35,0 0,35 -35,0 z M 105,70 l 35,0 0,35 -35,0 z M 140,70 l 35,0 0,35 -35,0 z M 210,70 l 35,0 0,35 -35,0 z M 315,70 l 35,0 0,35 -35,0 z M 350,70 l 35,0 0,35 -35,0 z M 385,70 l 35,0 0,35 -35,0 z M 490,70 l 35,0 0,35 -35,0 z M 560,70 l 35,0 0,35 -35,0 z M 700,70 l 35,0 0,35 -35,0 z M 770,70 l 35,0 0,35 -35,0 z M 840,70 l 35,0 0,35 -35,0 z M 875,70 l 35,0 0,35 -35,0 z M 910,70 l 35,0 0,35 -35,0 z M 980,70 l 35,0 0,35 -35,0 z M 0,105 l 35,0 0,35 -35,0 z M 70,105 l 35,0 0,35 -35,0 z M 105,105 l 35,0 0,35 -35,0 z M 140,105 l 35,0 0,35 -35,0 z M 210,105 l 35,0 0,35 -35,0 z M 280,105 l 35,0 0,35 -35,0 z M 315,105 l 35,0 0,35 -35,0 z M 385,105 l 35,0 0,35 -35,0 z M 560,105 l 35,0 0,35 -35,0 z M 595,105 l 35,0 0,35 -35,0 z M 630,105 l 35,0 0,35 -35,0 z M 665,105 l 35,0 0,35 -35,0 z M 770,105 l 35,0 0,35 -35,0 z M 840,105 l 35,0 0,35 -35,0 z M 875,105 l 35,0 0,35 -35,0 z M 910,105 l 35,0 0,35 -35,0 z M 980,105 l 35,0 0,35 -35,0 z M 0,140 l 35,0 0,35 -35,0 z M 70,140 l 35,0 0,35 -35,0 z M 105,140 l 35,0 0,35 -35,0 z M 140,140 l 35,0 0,35 -35,0 z M 210,140 l 35,0 0,35 -35,0 z M 350,140 l 35,0 0,35 -35,0 z M 420,140 l 35,0 0,35 -35,0 z M 455,140 l 35,0 0,35 -35,0 z M 490,140 l 35,0 0,35 -35,0 z M 525,140 l 35,0 0,35 -35,0 z M 630,140 l 35,0 0,35 -35,0 z M 665,140 l 35,0 0,35 -35,0 z M 700,140 l 35,0 0,35 -35,0 z M 770,140 l 35,0 0,35 -35,0 z M 840,140 l 35,0 0,35 -35,0 z M 875,140 l 35,0 0,35 -35,0 z M 910,140 l 35,0 0,35 -35,0 z M 980,140 l 35,0 0,35 -35,0 z M 0,175 l 35,0 0,35 -35,0 z M 210,175 l 35,0 0,35 -35,0 z M 280,175 l 35,0 0,35 -35,0 z M 350,175 l 35,0 0,35 -35,0 z M 455,175 l 35,0 0,35 -35,0 z M 490,175 l 35,0 0,35 -35,0 z M 525,175 l 35,0 0,35 -35,0 z M 560,175 l 35,0 0,35 -35,0 z M 595,175 l 35,0 0,35 -35,0 z M 630,175 l 35,0 0,35 -35,0 z M 700,175 l 35,0 0,35 -35,0 z M 770,175 l 35,0 0,35 -35,0 z M 980,175 l 35,0 0,35 -35,0 z M 0,210 l 35,0 0,35 -35,0 z M 35,210 l 35,0 0,35 -35,0 z M 70,210 l 35,0 0,35 -35,0 z M 105,210 l 35,0 0,35 -35,0 z M 140,210 l 35,0 0,35 -35,0 z M 175,210 l 35,0 0,35 -35,0 z M 210,210 l 35,0 0,35 -35,0 z M 280,210 l 35,0 0,35 -35,0 z M 350,210 l 35,0 0,35 -35,0 z M 420,210 l 35,0 0,35 -35,0 z M 490,210 l 35,0 0,35 -35,0 z M 560,210 l 35,0 0,35 -35,0 z M 630,210 l 35,0 0,35 -35,0 z M 700,210 l 35,0 0,35 -35,0 z M 770,210 l 35,0 0,35 -35,0 z M 805,210 l 35,0 0,35 -35,0 z M 840,210 l 35,0 0,35 -35,0 z M 875,210 l 35,0 0,35 -35,0 z M 910,210 l 35,0 0,35 -35,0 z M 945,210 l 35,0 0,35 -35,0 z M 980,210 l 35,0 0,35 -35,0 z M 420,245 l 35,0 0,35 -35,0 z M 455,245 l 35,0 0,35 -35,0 z M 525,245 l 35,0 0,35 -35,0 z M 665,245 l 35,0 0,35 -35,0 z M 700,245 l 35,0 0,35 -35,0 z M 0,280 l 35,0 0,35 -35,0 z M 35,280 l 35,0 0,35 -35,0 z M 70,280 l 35,0 0,35 -35,0 z M 105,280 l 35,0 0,35 -35,0 z M 140,280 l 35,0 0,35 -35,0 z M 210,280 l 35,0 0,35 -35,0 z M 245,280 l 35,0 0,35 -35,0 z M 280,280 l 35,0 0,35 -35,0 z M 315,280 l 35,0 0,35 -35,0 z M 350,280 l 35,0 0,35 -35,0 z M 420,280 l 35,0 0,35 -35,0 z M 490,280 l 35,0 0,35 -35,0 z M 525,280 l 35,0 0,35 -35,0 z M 595,280 l 35,0 0,35 -35,0 z M 630,280 l 35,0 0,35 -35,0 z M 665,280 l 35,0 0,35 -35,0 z M 735,280 l 35,0 0,35 -35,0 z M 805,280 l 35,0 0,35 -35,0 z M 875,280 l 35,0 0,35 -35,0 z M 945,280 l 35,0 0,35 -35,0 z M 35,315 l 35,0 0,35 -35,0 z M 175,315 l 35,0 0,35 -35,0 z M 315,315 l 35,0 0,35 -35,0 z M 525,315 l 35,0 0,35 -35,0 z M 560,315 l 35,0 0,35 -35,0 z M 595,315 l 35,0 0,35 -35,0 z M 630,315 l 35,0 0,35 -35,0 z M 665,315 l 35,0 0,35 -35,0 z M 700,315 l 35,0 0,35 -35,0 z M 735,315 l 35,0 0,35 -35,0 z M 770,315 l 35,0 0,35 -35,0 z M 805,315 l 35,0 0,35 -35,0 z M 840,315 l 35,0 0,35 -35,0 z M 980,315 l 35,0 0,35 -35,0 z M 35,350 l 35,0 0,35 -35,0 z M 105,350 l 35,0 0,35 -35,0 z M 140,350 l 35,0 0,35 -35,0 z M 175,350 l 35,0 0,35 -35,0 z M 210,350 l 35,0 0,35 -35,0 z M 245,350 l 35,0 0,35 -35,0 z M 280,350 l 35,0 0,35 -35,0 z M 315,350 l 35,0 0,35 -35,0 z M 385,350 l 35,0 0,35 -35,0 z M 420,350 l 35,0 0,35 -35,0 z M 595,350 l 35,0 0,35 -35,0 z M 700,350 l 35,0 0,35 -35,0 z M 735,350 l 35,0 0,35 -35,0 z M 840,350 l 35,0 0,35 -35,0 z M 0,385 l 35,0 0,35 -35,0 z M 105,385 l 35,0 0,35 -35,0 z M 245,385 l 35,0 0,35 -35,0 z M 315,385 l 35,0 0,35 -35,0 z M 350,385 l 35,0 0,35 -35,0 z M 385,385 l 35,0 0,35 -35,0 z M 490,385 l 35,0 0,35 -35,0 z M 560,385 l 35,0 0,35 -35,0 z M 665,385 l 35,0 0,35 -35,0 z M 840,385 l 35,0 0,35 -35,0 z M 875,385 l 35,0 0,35 -35,0 z M 945,385 l 35,0 0,35 -35,0 z M 0,420 l 35,0 0,35 -35,0 z M 70,420 l 35,0 0,35 -35,0 z M 105,420 l 35,0 0,35 -35,0 z M 140,420 l 35,0 0,35 -35,0 z M 175,420 l 35,0 0,35 -35,0 z M 210,420 l 35,0 0,35 -35,0 z M 280,420 l 35,0 0,35 -35,0 z M 315,420 l 35,0 0,35 -35,0 z M 385,420 l 35,0 0,35 -35,0 z M 595,420 l 35,0 0,35 -35,0 z M 805,420 l 35,0 0,35 -35,0 z M 875,420 l 35,0 0,35 -35,0 z M 910,420 l 35,0 0,35 -35,0 z M 105,455 l 35,0 0,35 -35,0 z M 175,455 l 35,0 0,35 -35,0 z M 280,455 l 35,0 0,35 -35,0 z M 315,455 l 35,0 0,35 -35,0 z M 350,455 l 35,0 0,35 -35,0 z M 420,455 l 35,0 0,35 -35,0 z M 455,455 l 35,0 0,35 -35,0 z M 490,455 l 35,0 0,35 -35,0 z M 525,455 l 35,0 0,35 -35,0 z M 630,455 l 35,0 0,35 -35,0 z M 665,455 l 35,0 0,35 -35,0 z M 700,455 l 35,0 0,35 -35,0 z M 770,455 l 35,0 0,35 -35,0 z M 805,455 l 35,0 0,35 -35,0 z M 840,455 l 35,0 0,35 -35,0 z M 980,455 l 35,0 0,35 -35,0 z M 0,490 l 35,0 0,35 -35,0 z M 70,490 l 35,0 0,35 -35,0 z M 105,490 l 35,0 0,35 -35,0 z M 140,490 l 35,0 0,35 -35,0 z M 210,490 l 35,0 0,35 -35,0 z M 245,490 l 35,0 0,35 -35,0 z M 280,490 l 35,0 0,35 -35,0 z M 350,490 l 35,0 0,35 -35,0 z M 455,490 l 35,0 0,35 -35,0 z M 490,490 l 35,0 0,35 -35,0 z M 525,490 l 35,0 0,35 -35,0 z M 735,490 l 35,0 0,35 -35,0 z M 805,490 l 35,0 0,35 -35,0 z M 840,490 l 35,0 0,35 -35,0 z M 875,490 l 35,0 0,35 -35,0 z M 910,490 l 35,0 0,35 -35,0 z M 0,525 l 35,0 0,35 -35,0 z M 70,525 l 35,0 0,35 -35,0 z M 105,525 l 35,0 0,35 -35,0 z M 315,525 l 35,0 0,35 -35,0 z M 350,525 l 35,0 0,35 -35,0 z M 420,525 l 35,0 0,35 -35,0 z M 455,525 l 35,0 0,35 -35,0 z M 525,525 l 35,0 0,35 -35,0 z M 560,525 l 35,0 0,35 -35,0 z M 630,525 l 35,0 0,35 -35,0 z M 665,525 l 35,0 0,35 -35,0 z M 700,525 l 35,0 0,35 -35,0 z M 735,525 l 35,0 0,35 -35,0 z M 770,525 l 35,0 0,35 -35,0 z M 805,525 l 35,0 0,35 -35,0 z M 945,525 l 35,0 0,35 -35,0 z M 105,560 l 35,0 0,35 -35,0 z M 210,560 l 35,0 0,35 -35,0 z M 280,560 l 35,0 0,35 -35,0 z M 315,560 l 35,0 0,35 -35,0 z M 420,560 l 35,0 0,35 -35,0 z M 490,560 l 35,0 0,35 -35,0 z M 525,560 l 35,0 0,35 -35,0 z M 595,560 l 35,0 0,35 -35,0 z M 665,560 l 35,0 0,35 -35,0 z M 875,560 l 35,0 0,35 -35,0 z M 910,560 l 35,0 0,35 -35,0 z M 0,595 l 35,0 0,35 -35,0 z M 70,595 l 35,0 0,35 -35,0 z M 245,595 l 35,0 0,35 -35,0 z M 560,595 l 35,0 0,35 -35,0 z M 595,595 l 35,0 0,35 -35,0 z M 630,595 l 35,0 0,35 -35,0 z M 665,595 l 35,0 0,35 -35,0 z M 735,595 l 35,0 0,35 -35,0 z M 770,595 l 35,0 0,35 -35,0 z M 840,595 l 35,0 0,35 -35,0 z M 910,595 l 35,0 0,35 -35,0 z M 980,595 l 35,0 0,35 -35,0 z M 0,630 l 35,0 0,35 -35,0 z M 70,630 l 35,0 0,35 -35,0 z M 105,630 l 35,0 0,35 -35,0 z M 140,630 l 35,0 0,35 -35,0 z M 210,630 l 35,0 0,35 -35,0 z M 245,630 l 35,0 0,35 -35,0 z M 280,630 l 35,0 0,35 -35,0 z M 385,630 l 35,0 0,35 -35,0 z M 420,630 l 35,0 0,35 -35,0 z M 525,630 l 35,0 0,35 -35,0 z M 560,630 l 35,0 0,35 -35,0 z M 595,630 l 35,0 0,35 -35,0 z M 700,630 l 35,0 0,35 -35,0 z M 735,630 l 35,0 0,35 -35,0 z M 770,630 l 35,0 0,35 -35,0 z M 805,630 l 35,0 0,35 -35,0 z M 910,630 l 35,0 0,35 -35,0 z M 0,665 l 35,0 0,35 -35,0 z M 105,665 l 35,0 0,35 -35,0 z M 350,665 l 35,0 0,35 -35,0 z M 385,665 l 35,0 0,35 -35,0 z M 490,665 l 35,0 0,35 -35,0 z M 525,665 l 35,0 0,35 -35,0 z M 665,665 l 35,0 0,35 -35,0 z M 700,665 l 35,0 0,35 -35,0 z M 770,665 l 35,0 0,35 -35,0 z M 840,665 l 35,0 0,35 -35,0 z M 945,665 l 35,0 0,35 -35,0 z M 0,700 l 35,0 0,35 -35,0 z M 70,700 l 35,0 0,35 -35,0 z M 140,700 l 35,0 0,35 -35,0 z M 175,700 l 35,0 0,35 -35,0 z M 210,700 l 35,0 0,35 -35,0 z M 245,700 l 35,0 0,35 -35,0 z M 280,700 l 35,0 0,35 -35,0 z M 315,700 l 35,0 0,35 -35,0 z M 385,700 l 35,0 0,35 -35,0 z M 525,700 l 35,0 0,35 -35,0 z M 595,700 l 35,0 0,35 -35,0 z M 700,700 l 35,0 0,35 -35,0 z M 735,700 l 35,0 0,35 -35,0 z M 770,700 l 35,0 0,35 -35,0 z M 805,700 l 35,0 0,35 -35,0 z M 840,700 l 35,0 0,35 -35,0 z M 910,700 l 35,0 0,35 -35,0 z M 945,700 l 35,0 0,35 -35,0 z M 980,700 l 35,0 0,35 -35,0 z M 280,735 l 35,0 0,35 -35,0 z M 420,735 l 35,0 0,35 -35,0 z M 455,735 l 35,0 0,35 -35,0 z M 490,735 l 35,0 0,35 -35,0 z M 560,735 l 35,0 0,35 -35,0 z M 700,735 l 35,0 0,35 -35,0 z M 840,735 l 35,0 0,35 -35,0 z M 875,735 l 35,0 0,35 -35,0 z M 910,735 l 35,0 0,35 -35,0 z M 945,735 l 35,0 0,35 -35,0 z M 980,735 l 35,0 0,35 -35,0 z M 0,770 l 35,0 0,35 -35,0 z M 35,770 l 35,0 0,35 -35,0 z M 70,770 l 35,0 0,35 -35,0 z M 105,770 l 35,0 0,35 -35,0 z M 140,770 l 35,0 0,35 -35,0 z M 175,770 l 35,0 0,35 -35,0 z M 210,770 l 35,0 0,35 -35,0 z M 280,770 l 35,0 0,35 -35,0 z M 455,770 l 35,0 0,35 -35,0 z M 490,770 l 35,0 0,35 -35,0 z M 525,770 l 35,0 0,35 -35,0 z M 560,770 l 35,0 0,35 -35,0 z M 595,770 l 35,0 0,35 -35,0 z M 665,770 l 35,0 0,35 -35,0 z M 700,770 l 35,0 0,35 -35,0 z M 770,770 l 35,0 0,35 -35,0 z M 840,770 l 35,0 0,35 -35,0 z M 875,770 l 35,0 0,35 -35,0 z M 910,770 l 35,0 0,35 -35,0 z M 0,805 l 35,0 0,35 -35,0 z M 210,805 l 35,0 0,35 -35,0 z M 315,805 l 35,0 0,35 -35,0 z M 420,805 l 35,0 0,35 -35,0 z M 455,805 l 35,0 0,35 -35,0 z M 560,805 l 35,0 0,35 -35,0 z M 665,805 l 35,0 0,35 -35,0 z M 700,805 l 35,0 0,35 -35,0 z M 840,805 l 35,0 0,35 -35,0 z M 0,840 l 35,0 0,35 -35,0 z M 70,840 l 35,0 0,35 -35,0 z M 105,840 l 35,0 0,35 -35,0 z M 140,840 l 35,0 0,35 -35,0 z M 210,840 l 35,0 0,35 -35,0 z M 280,840 l 35,0 0,35 -35,0 z M 315,840 l 35,0 0,35 -35,0 z M 420,840 l 35,0 0,35 -35,0 z M 490,840 l 35,0 0,35 -35,0 z M 595,840 l 35,0 0,35 -35,0 z M 700,840 l 35,0 0,35 -35,0 z M 735,840 l 35,0 0,35 -35,0 z M 770,840 l 35,0 0,35 -35,0 z M 805,840 l 35,0 0,35 -35,0 z M 840,840 l 35,0 0,35 -35,0 z M 910,840 l 35,0 0,35 -35,0 z M 945,840 l 35,0 0,35 -35,0 z M 0,875 l 35,0 0,35 -35,0 z M 70,875 l 35,0 0,35 -35,0 z M 105,875 l 35,0 0,35 -35,0 z M 140,875 l 35,0 0,35 -35,0 z M 210,875 l 35,0 0,35 -35,0 z M 280,875 l 35,0 0,35 -35,0 z M 350,875 l 35,0 0,35 -35,0 z M 560,875 l 35,0 0,35 -35,0 z M 595,875 l 35,0 0,35 -35,0 z M 630,875 l 35,0 0,35 -35,0 z M 700,875 l 35,0 0,35 -35,0 z M 805,875 l 35,0 0,35 -35,0 z M 875,875 l 35,0 0,35 -35,0 z M 910,875 l 35,0 0,35 -35,0 z M 945,875 l 35,0 0,35 -35,0 z M 980,875 l 35,0 0,35 -35,0 z M 0,910 l 35,0 0,35 -35,0 z M 70,910 l 35,0 0,35 -35,0 z M 105,910 l 35,0 0,35 -35,0 z M 140,910 l 35,0 0,35 -35,0 z M 210,910 l 35,0 0,35 -35,0 z M 280,910 l 35,0 0,35 -35,0 z M 315,910 l 35,0 0,35 -35,0 z M 350,910 l 35,0 0,35 -35,0 z M 385,910 l 35,0 0,35 -35,0 z M 420,910 l 35,0 0,35 -35,0 z M 525,910 l 35,0 0,35 -35,0 z M 595,910 l 35,0 0,35 -35,0 z M 665,910 l 35,0 0,35 -35,0 z M 700,910 l 35,0 0,35 -35,0 z M 735,910 l 35,0 0,35 -35,0 z M 770,910 l 35,0 0,35 -35,0 z M 805,910 l 35,0 0,35 -35,0 z M 840,910 l 35,0 0,35 -35,0 z M 875,910 l 35,0 0,35 -35,0 z M 910,910 l 35,0 0,35 -35,0 z M 945,910 l 35,0 0,35 -35,0 z M 0,945 l 35,0 0,35 -35,0 z M 210,945 l 35,0 0,35 -35,0 z M 280,945 l 35,0 0,35 -35,0 z M 315,945 l 35,0 0,35 -35,0 z M 350,945 l 35,0 0,35 -35,0 z M 385,945 l 35,0 0,35 -35,0 z M 490,945 l 35,0 0,35 -35,0 z M 525,945 l 35,0 0,35 -35,0 z M 560,945 l 35,0 0,35 -35,0 z M 630,945 l 35,0 0,35 -35,0 z M 700,945 l 35,0 0,35 -35,0 z M 735,945 l 35,0 0,35 -35,0 z M 770,945 l 35,0 0,35 -35,0 z M 840,945 l 35,0 0,35 -35,0 z M 875,945 l 35,0 0,35 -35,0 z M 945,945 l 35,0 0,35 -35,0 z M 0,980 l 35,0 0,35 -35,0 z M 35,980 l 35,0 0,35 -35,0 z M 70,980 l 35,0 0,35 -35,0 z M 105,980 l 35,0 0,35 -35,0 z M 140,980 l 35,0 0,35 -35,0 z M 175,980 l 35,0 0,35 -35,0 z M 210,980 l 35,0 0,35 -35,0 z M 280,980 l 35,0 0,35 -35,0 z M 385,980 l 35,0 0,35 -35,0 z M 595,980 l 35,0 0,35 -35,0 z M 665,980 l 35,0 0,35 -35,0 z M 875,980 l 35,0 0,35 -35,0 z M 910,980 l 35,0 0,35 -35,0 z " />
	</g>
</svg>
