<svg xmlns="http://www.w3.org/2000/svg" width="1024" height="1024" viewBox="0 0 37 37" shape-rendering="crispEdges"><path fill="#F5F5F7" d="M0 0h37v37H0z"/><path stroke="#0A0C10" d="M2 2.5h7m4 0h2m3 0h3m1 0h1m1 0h1m1 0h1m1 0h7M2 3.5h1m5 0h1m1 0h1m2 0h4m1 0h4m1 0h1m4 0h1m5 0h1M2 4.5h1m1 0h3m1 0h1m1 0h1m1 0h3m3 0h1m1 0h2m1 0h1m2 0h1m1 0h1m1 0h3m1 0h1M2 5.5h1m1 0h3m1 0h1m1 0h3m3 0h3m2 0h5m2 0h1m1 0h3m1 0h1M2 6.5h1m1 0h3m1 0h1m1 0h1m1 0h1m2 0h2m1 0h2m1 0h1m1 0h2m3 0h1m1 0h3m1 0h1M2 7.5h1m5 0h1m1 0h2m5 0h5m1 0h1m2 0h1m1 0h1m5 0h1M2 8.5h7m1 0h1m1 0h1m1 0h1m1 0h1m1 0h1m1 0h1m1 0h1m1 0h1m1 0h1m1 0h7M12 9.5h2m2 0h2m2 0h1m3 0h1M4 10.5h1m2 0h4m1 0h1m2 0h3m1 0h1m1 0h1m2 0h4m1 0h5M3 11.5h1m5 0h3m1 0h3m1 0h3m5 0h1m1 0h3m1 0h1m1 0h2M2 12.5h1m2 0h6m1 0h1m3 0h8m1 0h1m1 0h4m3 0h1M3 13.5h1m1 0h1m3 0h1m4 0h1m2 0h1m3 0h1m3 0h2m2 0h1M5 14.5h2m1 0h4m2 0h3m2 0h6m1 0h1m1 0h2m1 0h1m1 0h1M2 15.5h4m3 0h2m2 0h1m2 0h3m2 0h1m1 0h1m1 0h2m1 0h2m1 0h2m1 0h1M2 16.5h3m3 0h1m1 0h3m1 0h1m3 0h4m3 0h2m2 0h1m4 0h1M2 17.5h1m2 0h1m1 0h1m1 0h2m1 0h2m2 0h1m2 0h1m2 0h1m1 0h2m1 0h5m1 0h1M3 18.5h1m4 0h3m8 0h2m1 0h1m1 0h2m2 0h2m3 0h2M2 19.5h3m1 0h1m2 0h3m2 0h5m2 0h1m1 0h1m1 0h1m2 0h2m2 0h1m1 0h1M4 20.5h1m1 0h1m1 0h3m1 0h10m1 0h3m5 0h2m1 0h1M2 21.5h1m2 0h2m2 0h2m4 0h3m1 0h4m1 0h2m5 0h1M4 22.5h1m3 0h2m7 0h2m1 0h1m4 0h2m1 0h1m5 0h1M3 23.5h2m5 0h1m2 0h1m3 0h3m1 0h1m1 0h1m1 0h2m1 0h2m4 0h1M2 24.5h3m1 0h1m1 0h2m1 0h1m1 0h1m1 0h1m2 0h2m1 0h2m2 0h1m1 0h2m1 0h1m3 0h1M4 25.5h1m1 0h1m2 0h2m4 0h2m1 0h1m1 0h2m2 0h3m2 0h2m3 0h1M2 26.5h7m4 0h4m2 0h1m6 0h6M10 27.5h3m1 0h1m1 0h1m2 0h5m2 0h1m3 0h5M2 28.5h7m1 0h2m1 0h3m3 0h1m1 0h2m3 0h1m1 0h1m1 0h2m2 0h1M2 29.5h1m5 0h1m1 0h2m1 0h1m2 0h2m4 0h2m2 0h1m3 0h2m1 0h2M2 30.5h1m1 0h3m1 0h1m3 0h3m1 0h1m1 0h4m1 0h1m1 0h7M2 31.5h1m1 0h3m1 0h1m4 0h1m2 0h2m7 0h1m1 0h1m1 0h3m2 0h1M2 32.5h1m1 0h3m1 0h1m1 0h2m2 0h2m3 0h2m1 0h2m6 0h1m2 0h2M2 33.5h1m5 0h1m3 0h1m1 0h3m2 0h1m3 0h1m1 0h2m4 0h1M2 34.5h7m2 0h2m2 0h1m1 0h2m2 0h1m2 0h1m1 0h1m1 0h1m1 0h2m2 0h1"/>
    <g transform="translate(346, 346)">
      <rect x="0" y="0" width="332" height="332" rx="66" ry="66" fill="white"/>
      <text x="50%" y="55%" text-anchor="middle" dominant-baseline="middle" 
            font-family="Arial, sans-serif" font-size="153.6" font-weight="800" font-style="italic" fill="#1C5BFF">
        Xs
      </text>
    </g>
  </svg>
